{
  "source": "C:\\Users\\Peter\\Desktop\\stuff\\MIUN\\quantitative_research\\video_compression\\videos\\BVI-HD\\Diver_1920x1080_30fps.mp4",
  "output": "C:\\Users\\Peter\\Desktop\\stuff\\MIUN\\quantitative_research\\video_compression\\compressed_videos\\BVI-HD\\av1\\12\\Diver_1920x1080_30fps_av1.mkv",
  "codec": "av1",
  "ok": "Input #0, mov,mp4,m4a,3gp,3g2,mj2, from 'C:\\Users\\Peter\\Desktop\\stuff\\MIUN\\quantitative_research\\video_compression\\videos\\BVI-HD\\Diver_1920x1080_30fps.mp4':\n  Metadata:\n    major_brand     : isom\n    minor_version   : 512\n    compatible_brands: isomiso2avc1mp41\n    encoder         : Lavf54.28.101\n  Duration: 00:00:05.00, start: 0.000000, bitrate: 196798 kb/s\n  Stream #0:0[0x1](und): Video: h264 (High 4:4:4 Predictive) (avc1 / 0x31637661), yuv420p(progressive), 1920x1080, 196794 kb/s, 30 fps, 30 tbr, 30 tbn (default)\n    Metadata:\n      handler_name    : VideoHandler\n      vendor_id       : [0][0][0][0]\n[out#0/matroska @ 000001bd9a9492c0] Codec AVOption b:a (set bitrate (in bits/s)) has not been used for any stream. The most likely reason is either wrong type (e.g. a video option with no video streams) or that it is a private option of some decoder which was not actually used for any stream.\nStream mapping:\n  Stream #0:0 -> #0:0 (h264 (native) -> av1 (libsvtav1))\nPress [q] to stop, [?] for help\nSvt[info]: -------------------------------------------\nSvt[info]: SVT [version]:\tSVT-AV1 Encoder Lib v3.1.0-19-g6ecfe8ec\nSvt[info]: SVT [build]  :\tGCC 15.2.0\t 64 bit\nSvt[info]: LIB Build date: Aug 17 2025 11:37:13\nSvt[info]: -------------------------------------------\nSvt[info]: Level of Parallelism: 5\nSvt[info]: Number of PPCS 93\nSvt[info]: [asm level on system : up to avx2]\nSvt[info]: [asm level selected : up to avx2]\nSvt[info]: -------------------------------------------\nSvt[info]: SVT [config]: main profile\ttier (auto)\tlevel (auto)\nSvt[info]: SVT [config]: width / height / fps numerator / fps denominator \t\t: 1920 / 1080 / 30 / 1\nSvt[info]: SVT [config]: bit-depth / color format \t\t\t\t\t: 8 / YUV420\nSvt[info]: SVT [config]: preset / tune / pred struct \t\t\t\t\t: 4 / PSNR / random access\nSvt[info]: SVT [config]: gop size / mini-gop size / key-frame type \t\t\t: 161 / 16 / key frame\nSvt[info]: SVT [config]: BRC mode / target bitrate (kbps)\t\t\t\t: VBR / 12000 \nSvt[info]: SVT [config]: AQ mode / Variance Boost \t\t\t\t\t: 2 / 0\nSvt[info]: SVT [config]: sharpness / luminance-based QP bias \t\t\t\t: 0 / 0\nSvt[info]: SVT [config]: QP scale compress strength \t\t\t\t\t: 0\nSvt[info]: -------------------------------------------\nOutput #0, matroska, to 'C:\\Users\\Peter\\Desktop\\stuff\\MIUN\\quantitative_research\\video_compression\\compressed_videos\\BVI-HD\\av1\\12\\Diver_1920x1080_30fps_av1.mkv':\n  Metadata:\n    major_brand     : isom\n    minor_version   : 512\n    compatible_brands: isomiso2avc1mp41\n    encoder         : Lavf62.3.100\n  Stream #0:0(und): Video: av1 (AV01 / 0x31305641), yuv420p(tv, progressive), 1920x1080, q=2-31, 12000 kb/s, 30 fps, 1k tbn (default)\n    Metadata:\n      encoder         : Lavc62.11.100 libsvtav1\n      handler_name    : VideoHandler\n      vendor_id       : [0][0][0][0]\n    Side data:\n      cpb: bitrate max/min/avg: 0/0/12000000 buffer size: 12000000 vbv_delay: N/A\nframe=    0 fps=0.0 q=0.0 size=       0KiB time=N/A bitrate=N/A speed=N/A elapsed=0:00:02.59    \nframe=    0 fps=0.0 q=0.0 size=       0KiB time=N/A bitrate=N/A speed=N/A elapsed=0:00:03.12    \nframe=    0 fps=0.0 q=0.0 size=       0KiB time=N/A bitrate=N/A speed=N/A elapsed=0:00:03.63    \nframe=    0 fps=0.0 q=0.0 size=       0KiB time=N/A bitrate=N/A speed=N/A elapsed=0:00:04.15    \nframe=    0 fps=0.0 q=0.0 size=       0KiB time=N/A bitrate=N/A speed=N/A elapsed=0:00:04.68    \nframe=    0 fps=0.0 q=0.0 size=       0KiB time=N/A bitrate=N/A speed=N/A elapsed=0:00:05.32    \nframe=    0 fps=0.0 q=0.0 size=       0KiB time=N/A bitrate=N/A speed=N/A elapsed=0:00:05.88    \nframe=    0 fps=0.0 q=0.0 size=       0KiB time=N/A bitrate=N/A speed=N/A elapsed=0:00:06.40    \nframe=    1 fps=0.1 q=1.0 size=       1KiB time=00:00:00.00 bitrate=N/A speed=   0x elapsed=0:00:06.92    \nframe=    1 fps=0.1 q=1.0 size=       1KiB time=00:00:00.00 bitrate=N/A speed=   0x elapsed=0:00:07.42    \nframe=    1 fps=0.1 q=1.0 size=       1KiB time=00:00:00.00 bitrate=N/A speed=   0x elapsed=0:00:07.96    \nframe=    1 fps=0.1 q=1.0 size=       1KiB time=00:00:00.00 bitrate=N/A speed=   0x elapsed=0:00:08.52    \nframe=    2 fps=0.2 q=10.0 size=       1KiB time=00:00:00.03 bitrate= 171.1kbits/s speed=0.00368x elapsed=0:00:09.06    \nframe=    4 fps=0.4 q=10.0 size=       1KiB time=00:00:00.10 bitrate=  57.0kbits/s speed=0.0104x elapsed=0:00:09.58    \nframe=    6 fps=0.6 q=10.0 size=       1KiB time=00:00:00.16 bitrate=  34.2kbits/s speed=0.0165x elapsed=0:00:10.10    \nframe=    7 fps=0.7 q=7.0 size=       1KiB time=00:00:00.20 bitrate=  28.5kbits/s speed=0.0188x elapsed=0:00:10.64    \nframe=    9 fps=0.8 q=6.0 size=       1KiB time=00:00:00.26 bitrate=  21.4kbits/s speed=0.0239x elapsed=0:00:11.15    \nframe=   10 fps=0.9 q=9.0 size=       1KiB time=00:00:00.30 bitrate=  19.0kbits/s speed=0.0256x elapsed=0:00:11.70    \nframe=   12 fps=1.0 q=8.0 size=       1KiB time=00:00:00.36 bitrate=  15.6kbits/s speed=0.03x elapsed=0:00:12.23    \nframe=   14 fps=1.1 q=8.0 size=       1KiB time=00:00:00.43 bitrate=  13.2kbits/s speed=0.0339x elapsed=0:00:12.80    \nframe=   16 fps=1.2 q=8.0 size=       1KiB time=00:00:00.50 bitrate=  11.4kbits/s speed=0.0375x elapsed=0:00:13.33    \nframe=   18 fps=1.3 q=7.0 size=       1KiB time=00:00:00.56 bitrate=  10.1kbits/s speed=0.0409x elapsed=0:00:13.85    \nframe=   19 fps=1.3 q=8.0 size=       1KiB time=00:00:00.60 bitrate=   9.5kbits/s speed=0.0417x elapsed=0:00:14.38    \nframe=   20 fps=1.3 q=8.0 size=       1KiB time=00:00:00.63 bitrate=   9.0kbits/s speed=0.0425x elapsed=0:00:14.90    \nframe=   22 fps=1.4 q=8.0 size=       1KiB time=00:00:00.70 bitrate=   8.1kbits/s speed=0.0454x elapsed=0:00:15.42    \nframe=   23 fps=1.4 q=8.0 size=       1KiB time=00:00:00.73 bitrate=   7.8kbits/s speed=0.0459x elapsed=0:00:15.96    \nframe=   25 fps=1.5 q=6.0 size=       1KiB time=00:00:00.80 bitrate=   7.1kbits/s speed=0.0484x elapsed=0:00:16.52    \nframe=   26 fps=1.5 q=7.0 size=       1KiB time=00:00:00.83 bitrate=   6.8kbits/s speed=0.0489x elapsed=0:00:17.05    \nframe=   28 fps=1.6 q=8.0 size=       1KiB time=00:00:00.90 bitrate=   6.3kbits/s speed=0.0512x elapsed=0:00:17.57    \nframe=   30 fps=1.7 q=8.0 size=       1KiB time=00:00:00.96 bitrate=   5.9kbits/s speed=0.0534x elapsed=0:00:18.08    \nframe=   32 fps=1.7 q=8.0 size=       1KiB time=00:00:01.03 bitrate=   5.5kbits/s speed=0.0555x elapsed=0:00:18.62    \nframe=   34 fps=1.8 q=8.0 size=       1KiB time=00:00:01.10 bitrate=   5.2kbits/s speed=0.0575x elapsed=0:00:19.14    \nframe=   35 fps=1.8 q=8.0 size=       1KiB time=00:00:01.13 bitrate=   5.0kbits/s speed=0.0577x elapsed=0:00:19.65    \nframe=   37 fps=1.8 q=7.0 size=       1KiB time=00:00:01.20 bitrate=   4.8kbits/s speed=0.0595x elapsed=0:00:20.17    \nframe=   39 fps=1.9 q=8.0 size=       1KiB time=00:00:01.26 bitrate=   4.5kbits/s speed=0.0612x elapsed=0:00:20.69    \nframe=   41 fps=1.9 q=4.0 size=       1KiB time=00:00:01.30 bitrate=   4.4kbits/s speed=0.0613x elapsed=0:00:21.21    \nframe=   43 fps=2.0 q=8.0 size=       1KiB time=00:00:01.40 bitrate=   4.1kbits/s speed=0.0644x elapsed=0:00:21.74    \nframe=   46 fps=2.1 q=8.0 size=       1KiB time=00:00:01.50 bitrate=   3.8kbits/s speed=0.0673x elapsed=0:00:22.28    \nframe=   49 fps=2.1 q=1.0 size=       1KiB time=00:00:01.60 bitrate=   3.6kbits/s speed=0.0702x elapsed=0:00:22.79    \nframe=   51 fps=2.2 q=9.0 size=       1KiB time=00:00:01.66 bitrate=   3.4kbits/s speed=0.0715x elapsed=0:00:23.31    \nframe=   55 fps=2.3 q=9.0 size=       1KiB time=00:00:01.80 bitrate=   3.2kbits/s speed=0.0755x elapsed=0:00:23.83    \nframe=   57 fps=2.3 q=3.0 size=       1KiB time=00:00:01.86 bitrate=   3.1kbits/s speed=0.0766x elapsed=0:00:24.35    \nframe=   57 fps=2.3 q=3.0 size=       1KiB time=00:00:01.86 bitrate=   3.1kbits/s speed=0.075x elapsed=0:00:24.87    \nframe=   61 fps=2.4 q=7.0 size=       1KiB time=00:00:02.00 bitrate=   2.9kbits/s speed=0.0787x elapsed=0:00:25.40    \nframe=   63 fps=2.4 q=9.0 size=       1KiB time=00:00:02.06 bitrate=   2.8kbits/s speed=0.0797x elapsed=0:00:25.94    \nframe=   65 fps=2.5 q=1.0 size=       1KiB time=00:00:02.13 bitrate=   2.7kbits/s speed=0.0806x elapsed=0:00:26.47    \nframe=   69 fps=2.6 q=8.0 size=       1KiB time=00:00:02.26 bitrate=   2.5kbits/s speed=0.084x elapsed=0:00:27.00    \nframe=   71 fps=2.6 q=9.0 size=       1KiB time=00:00:02.33 bitrate=   2.4kbits/s speed=0.0848x elapsed=0:00:27.50    \nframe=   73 fps=2.6 q=3.0 size=       1KiB time=00:00:02.40 bitrate=   2.4kbits/s speed=0.0856x elapsed=0:00:28.03    \nframe=   75 fps=2.6 q=9.0 size=       1KiB time=00:00:02.46 bitrate=   2.3kbits/s speed=0.0864x elapsed=0:00:28.54    \nframe=   77 fps=2.6 q=8.0 size=       1KiB time=00:00:02.53 bitrate=   2.3kbits/s speed=0.0871x elapsed=0:00:29.10    \nframe=   81 fps=2.7 q=1.0 size=       1KiB time=00:00:02.66 bitrate=   2.1kbits/s speed=0.09x elapsed=0:00:29.62    \nframe=   85 fps=2.8 q=9.0 size=       1KiB time=00:00:02.80 bitrate=   2.0kbits/s speed=0.0929x elapsed=0:00:30.15    \nframe=   87 fps=2.8 q=10.0 size=       1KiB time=00:00:02.86 bitrate=   2.0kbits/s speed=0.0934x elapsed=0:00:30.67    \nframe=   89 fps=2.9 q=5.0 size=       1KiB time=00:00:02.93 bitrate=   1.9kbits/s speed=0.094x elapsed=0:00:31.21    \nframe=   91 fps=2.9 q=10.0 size=       1KiB time=00:00:03.00 bitrate=   1.9kbits/s speed=0.0945x elapsed=0:00:31.75    \nframe=   93 fps=2.9 q=9.0 size=       1KiB time=00:00:03.06 bitrate=   1.9kbits/s speed=0.0951x elapsed=0:00:32.26    \nframe=   97 fps=3.0 q=1.0 size=       1KiB time=00:00:03.20 bitrate=   1.8kbits/s speed=0.0976x elapsed=0:00:32.78    \nframe=  101 fps=3.0 q=8.0 size=       1KiB time=00:00:03.33 bitrate=   1.7kbits/s speed= 0.1x elapsed=0:00:33.28    \nframe=  103 fps=3.0 q=9.0 size=       1KiB time=00:00:03.40 bitrate=   1.7kbits/s speed=0.101x elapsed=0:00:33.80    \nframe=  105 fps=3.1 q=7.0 size=       1KiB time=00:00:03.46 bitrate=   1.6kbits/s speed=0.101x elapsed=0:00:34.33    \nframe=  105 fps=3.0 q=7.0 size=       1KiB time=00:00:03.46 bitrate=   1.6kbits/s speed=0.0995x elapsed=0:00:34.83    \nframe=  109 fps=3.1 q=9.0 size=    5120KiB time=00:00:03.60 bitrate=11650.8kbits/s speed=0.102x elapsed=0:00:35.35    \nframe=  111 fps=3.1 q=9.0 size=    5120KiB time=00:00:03.66 bitrate=11439.0kbits/s speed=0.102x elapsed=0:00:35.89    \nframe=  113 fps=3.1 q=4.0 size=    5120KiB time=00:00:03.73 bitrate=11234.7kbits/s speed=0.103x elapsed=0:00:36.41    \nframe=  117 fps=3.2 q=7.0 size=    5120KiB time=00:00:03.86 bitrate=10847.3kbits/s speed=0.105x elapsed=0:00:36.93    \nframe=  121 fps=3.2 q=7.0 size=    5120KiB time=00:00:04.00 bitrate=10485.8kbits/s speed=0.107x elapsed=0:00:37.44    \nframe=  121 fps=3.2 q=7.0 size=    5120KiB time=00:00:04.00 bitrate=10485.8kbits/s speed=0.105x elapsed=0:00:37.97    \nframe=  123 fps=3.2 q=9.0 size=    5120KiB time=00:00:04.06 bitrate=10313.9kbits/s speed=0.106x elapsed=0:00:38.49    \nframe=  125 fps=3.2 q=8.0 size=    5120KiB time=00:00:04.13 bitrate=10147.5kbits/s speed=0.106x elapsed=0:00:39.01    \nframe=  129 fps=3.3 q=4.0 size=    5120KiB time=00:00:04.26 bitrate=9830.4kbits/s speed=0.108x elapsed=0:00:39.53    \nframe=  133 fps=3.3 q=11.0 size=    5120KiB time=00:00:04.40 bitrate=9532.5kbits/s speed=0.11x elapsed=0:00:40.04    \nframe=  135 fps=3.3 q=10.0 size=    5120KiB time=00:00:04.46 bitrate=9390.2kbits/s speed=0.11x elapsed=0:00:40.58    \nframe=  137 fps=3.3 q=8.0 size=    5120KiB time=00:00:04.53 bitrate=9252.1kbits/s speed=0.11x elapsed=0:00:41.10    \nframe=  139 fps=3.3 q=10.0 size=    5120KiB time=00:00:04.60 bitrate=9118.1kbits/s speed=0.111x elapsed=0:00:41.61    \nframe=  141 fps=3.3 q=11.0 size=    5120KiB time=00:00:04.66 bitrate=8987.8kbits/s speed=0.111x elapsed=0:00:42.13    \n[out#0/matroska @ 000001bd9a9492c0] video:7069KiB audio:0KiB subtitle:0KiB other streams:0KiB global headers:0KiB muxing overhead: 0.021096%\nframe=  150 fps=3.5 q=13.0 Lsize=    7070KiB time=00:00:04.96 bitrate=11661.7kbits/s speed=0.117x elapsed=0:00:42.36    \n",
  "seconds": 43.125648021698,
  "probe_out": {}
}